<svg id="visual" viewBox="0 0 900 600" width="900" height="600" xmlns="http://www.w3.org/2000/svg" xmlns:xlink="http://www.w3.org/1999/xlink" version="1.1"><rect x="0" y="0" width="900" height="600" fill="#FF0066"></rect><path d="M0 202L18.8 184.7C37.7 167.3 75.3 132.7 112.8 128.5C150.3 124.3 187.7 150.7 225.2 169.2C262.7 187.7 300.3 198.3 337.8 189.8C375.3 181.3 412.7 153.7 450.2 133.3C487.7 113 525.3 100 562.8 99.5C600.3 99 637.7 111 675.2 128.3C712.7 145.7 750.3 168.3 787.8 171C825.3 173.7 862.7 156.3 881.3 147.7L900 139L900 0L881.3 0C862.7 0 825.3 0 787.8 0C750.3 0 712.7 0 675.2 0C637.7 0 600.3 0 562.8 0C525.3 0 487.7 0 450.2 0C412.7 0 375.3 0 337.8 0C300.3 0 262.7 0 225.2 0C187.7 0 150.3 0 112.8 0C75.3 0 37.7 0 18.8 0L0 0Z" fill="#f1f5f8" stroke-linecap="round" stroke-linejoin="miter"></path></svg>